<?xml version="1.0" encoding="UTF-8" standalone="no" ?>
<!DOCTYPE svg PUBLIC "-//W3C//DTD SVG 1.1//EN" "http://www.w3.org/Graphics/SVG/1.1/DTD/svg11.dtd">
<svg xmlns="http://www.w3.org/2000/svg" xmlns:xlink="http://www.w3.org/1999/xlink" version="1.1" width="60" height="60" viewBox="0 0 60 60" xml:space="preserve">
<desc>Created with Fabric.js 4.6.0</desc>
<defs>
</defs>
<g transform="matrix(0.34 0 0 0.34 14.45 11.02)" id="aI6iO2PPPauugq3aK9d8z"  >
<path style="stroke: rgb(65,200,157); stroke-width: 0; stroke-dasharray: none; stroke-linecap: butt; stroke-dashoffset: 0; stroke-linejoin: miter; stroke-miterlimit: 4; fill: rgb(38,38,38); fill-rule: nonzero; opacity: 1;" vector-effect="non-scaling-stroke"  transform=" translate(0, 0)" d="M 0 -10.39501 C 5.73805 -10.39501 10.39501 -5.738049999999999 10.39501 0 C 10.39501 5.73805 5.738049999999999 10.39501 0 10.39501 C -5.73805 10.39501 -10.39501 5.738049999999999 -10.39501 0 C -10.39501 -5.73805 -5.738049999999999 -10.39501 0 -10.39501 z" stroke-linecap="round" />
</g>
<g transform="matrix(0.34 0 0 0.34 14.45 23.22)" id="Led6GmfyIpST8L7-0Nfzq"  >
<path style="stroke: rgb(65,200,157); stroke-width: 0; stroke-dasharray: none; stroke-linecap: butt; stroke-dashoffset: 0; stroke-linejoin: miter; stroke-miterlimit: 4; fill: rgb(38,38,38); fill-rule: nonzero; opacity: 1;" vector-effect="non-scaling-stroke"  transform=" translate(0, 0)" d="M 0 -10.39501 C 5.73805 -10.39501 10.39501 -5.738049999999999 10.39501 0 C 10.39501 5.73805 5.738049999999999 10.39501 0 10.39501 C -5.73805 10.39501 -10.39501 5.738049999999999 -10.39501 0 C -10.39501 -5.73805 -5.738049999999999 -10.39501 0 -10.39501 z" stroke-linecap="round" />
</g>
<g transform="matrix(0.34 0 0 0.34 14.45 36.05)" id="NhbwPrDy8VEzRuKTZu9C8"  >
<path style="stroke: rgb(65,200,157); stroke-width: 0; stroke-dasharray: none; stroke-linecap: butt; stroke-dashoffset: 0; stroke-linejoin: miter; stroke-miterlimit: 4; fill: rgb(38,38,38); fill-rule: nonzero; opacity: 1;" vector-effect="non-scaling-stroke"  transform=" translate(0, 0)" d="M 0 -10.39501 C 5.73805 -10.39501 10.39501 -5.738049999999999 10.39501 0 C 10.39501 5.73805 5.738049999999999 10.39501 0 10.39501 C -5.73805 10.39501 -10.39501 5.738049999999999 -10.39501 0 C -10.39501 -5.73805 -5.738049999999999 -10.39501 0 -10.39501 z" stroke-linecap="round" />
</g>
<g transform="matrix(0.34 0 0 0.34 14.45 48.98)" id="HBhaZ2H1Rzal6wnJIKtZQ"  >
<path style="stroke: rgb(65,200,157); stroke-width: 0; stroke-dasharray: none; stroke-linecap: butt; stroke-dashoffset: 0; stroke-linejoin: miter; stroke-miterlimit: 4; fill: rgb(38,38,38); fill-rule: nonzero; opacity: 1;" vector-effect="non-scaling-stroke"  transform=" translate(0, 0)" d="M 0 -10.39501 C 5.73805 -10.39501 10.39501 -5.738049999999999 10.39501 0 C 10.39501 5.73805 5.738049999999999 10.39501 0 10.39501 C -5.73805 10.39501 -10.39501 5.738049999999999 -10.39501 0 C -10.39501 -5.73805 -5.738049999999999 -10.39501 0 -10.39501 z" stroke-linecap="round" />
</g>
<g transform="matrix(1.26 0 0 -0.19 39.35 11.02)" id="P3gsqWKIZlAymlmKYRRi9"  >
<path style="stroke: rgb(154,28,88); stroke-width: 0; stroke-dasharray: none; stroke-linecap: butt; stroke-dashoffset: 0; stroke-linejoin: miter; stroke-miterlimit: 4; fill: rgb(38,38,38); fill-rule: nonzero; opacity: 1;" vector-effect="non-scaling-stroke"  transform=" translate(0, 0)" d="M -13.12336 -13.12336 L 13.12336 -13.12336 L 13.12336 13.12336 L -13.12336 13.12336 z" stroke-linecap="round" />
</g>
<g transform="matrix(1.16 0 0 -0.19 38.1 23.22)" id="SvM-YGTDrJdD7hqZrLj_-"  >
<path style="stroke: rgb(154,28,88); stroke-width: 0; stroke-dasharray: none; stroke-linecap: butt; stroke-dashoffset: 0; stroke-linejoin: miter; stroke-miterlimit: 4; fill: rgb(38,38,38); fill-rule: nonzero; opacity: 1;" vector-effect="non-scaling-stroke"  transform=" translate(0, 0)" d="M -13.12336 -13.12336 L 13.12336 -13.12336 L 13.12336 13.12336 L -13.12336 13.12336 z" stroke-linecap="round" />
</g>
<g transform="matrix(1.1 0 0 -0.19 37.3 36.05)" id="aLUZbXwldvit5drzhRd2P"  >
<path style="stroke: rgb(154,28,88); stroke-width: 0; stroke-dasharray: none; stroke-linecap: butt; stroke-dashoffset: 0; stroke-linejoin: miter; stroke-miterlimit: 4; fill: rgb(38,38,38); fill-rule: nonzero; opacity: 1;" vector-effect="non-scaling-stroke"  transform=" translate(0, 0)" d="M -13.12336 -13.12336 L 13.12336 -13.12336 L 13.12336 13.12336 L -13.12336 13.12336 z" stroke-linecap="round" />
</g>
<g transform="matrix(1 0 0 -0.19 35.97 48.98)" id="rCaASiouaDyuiHZO21z3e"  >
<path style="stroke: rgb(154,28,88); stroke-width: 0; stroke-dasharray: none; stroke-linecap: butt; stroke-dashoffset: 0; stroke-linejoin: miter; stroke-miterlimit: 4; fill: rgb(38,38,38); fill-rule: nonzero; opacity: 1;" vector-effect="non-scaling-stroke"  transform=" translate(0, 0)" d="M -13.12336 -13.12336 L 13.12336 -13.12336 L 13.12336 13.12336 L -13.12336 13.12336 z" stroke-linecap="round" />
</g>
</svg>